<?xml version="1.0" encoding="UTF-8"?>
<svg viewBox="0 0 206.58458 227.74681" xmlns="http://www.w3.org/2000/svg">
 <defs>
  <linearGradient id="e" x1="546.32" x2="576.95" y1="182.22" y2="167.27" gradientTransform="matrix(-.94117 -.055493 -.055837 .93537 681.57 145.36)" gradientUnits="userSpaceOnUse">
   <stop stop-color="#810000" offset="0"/>
   <stop stop-color="#810000" stop-opacity="0" offset="1"/>
  </linearGradient>
  <linearGradient id="d" x1="589.63" x2="612.99" y1="273.48" y2="262.6" gradientTransform="matrix(-.99825 -.059223 -.059223 .99825 715 134.98)" gradientUnits="userSpaceOnUse">
   <stop stop-color="#875500" offset="0"/>
   <stop stop-color="#875500" stop-opacity="0" offset="1"/>
  </linearGradient>
  <linearGradient id="c" x1="39.263" x2="237.11" gradientTransform="matrix(1 0 -.12831 1 57.872 1.6359)" gradientUnits="userSpaceOnUse">
   <stop stop-color="#2b0000" offset="0"/>
   <stop stop-color="#2b0000" stop-opacity="0" offset="1"/>
  </linearGradient>
  <radialGradient id="b" cx="61.453" cy="445.04" r="19.533" gradientTransform="matrix(.57976 -1.0749 .23643 .12752 -79.2 444.79)" gradientUnits="userSpaceOnUse">
   <stop stop-color="#903400" offset="0"/>
   <stop stop-color="#903400" stop-opacity="0" offset="1"/>
  </radialGradient>
  <radialGradient id="a" cx="582.18" cy="173.59" r="16.826" gradientTransform="matrix(.96889 -1.8841 -.3119 -.15842 -386.62 1395.1)" gradientUnits="userSpaceOnUse">
   <stop stop-color="#a97400" offset="0"/>
   <stop stop-color="#a97400" stop-opacity="0" offset="1"/>
  </radialGradient>
 </defs>
 <g transform="translate(-38.268 -232.98)">
  <path d="m235.39 382.83-103.96 32.436s12.235 1.8713-7.5182 9.9802-54.414 20.584-54.414 20.584-15.627 9.9802-22.105 11.852-10.14 1.2475-7.8053 2.495 14.203-3.7426 16.538-2.495 18.649-4.3664 18.089 0 39.827-18.713 44.897-19.337c3.195-0.39307 22.189-7.8772 32.619-10.13 6.1211-1.3219 6.4715 2.0206 6.4715 2.0206l86.132-39.297s3.7756-9.9802-8.9398-8.1089z" fill="url(#c)" fill-rule="evenodd"/>
  <path transform="matrix(-.71031 -.29721 -.29812 .70916 602.18 344.51)" d="m617.54 234.93a22.046 7.248 0 1 1 0.07435 -0.14317" fill="#2b0000" stroke="#a25b36" stroke-width=".4"/>
  <path d="m125.24 335.39-10.233 19.704s-25.169 39.133-29.705 55.108c-3.963 13.956-4.3273 15.166-4.3273 15.166s1.8136-4.8544-5.6758-8.1355c-1.6465-0.72133-3.6134-1.7668-6.3836-2.4888-2.5504-0.66475-6.9756-1.6096-8.1384-1.592-3.9807 0.0604-6.3452 3.1364-6.3452 3.1364s5.1605-6.4398 10.898-16.226c10.017-17.085 16.595-39.316 22.092-54.434 3.5209-9.6844 7.0141-18.882 9.6977-20.03 13.273-5.6763 28.217 8.1735 28.121 9.7927z" fill="#d45500" fill-rule="evenodd" stroke="#000" stroke-width=".96434"/>
  <path d="m125.24 335.39-10.233 19.704s-25.169 39.133-29.705 55.108c-3.963 13.956-3.9288 15.405-3.9288 15.405s0.93679-4.6152-6.5526-7.8964c-1.6465-0.72133-3.1351-2.245-5.9053-2.9671-2.5504-0.66475-6.9756-1.6096-8.1384-1.592-3.9807 0.0604-5.2293 2.2596-5.2293 2.2596s4.0446-5.563 9.782-15.349c10.017-17.085 16.595-39.316 22.092-54.434 3.5209-9.6844 7.0141-18.882 9.6977-20.03 13.273-5.6763 28.217 8.1735 28.121 9.7927z" fill="url(#d)" fill-rule="evenodd" stroke="#000" stroke-width=".96434"/>
  <path d="m125.22 338.46 40.508-82.111s3.7569-9.2159-2.2366-16.481c-5.0501-6.1215-18.796-12.287-29.772 3.936-20.307 30.014-39.844 82.912-39.844 82.912s1.1555-1.9005 5.2333-2.04c2.7571-0.09435 8.7189 1.4025 13.298 3.7002 4.5223 2.2691 6.0239 2.8934 8.4433 4.7114 1.6687 1.254 3.3015 2.5886 4.3699 5.373z" fill="#d40000" fill-rule="evenodd" stroke="#000" stroke-width=".90639"/>
  <path d="m125.22 338.46 40.508-82.111s3.7569-9.2159-2.2366-16.481c-5.0501-6.1215-18.796-12.287-29.772 3.936-20.307 30.014-39.844 82.912-39.844 82.912s1.1555-1.9005 5.2333-2.04c2.7571-0.09435 8.7189 1.4025 13.298 3.7002 4.5223 2.2691 6.0239 2.8934 8.4433 4.7114 1.6687 1.254 3.3015 2.5886 4.3699 5.373z" fill="url(#e)" fill-rule="evenodd" stroke="#000" stroke-width=".90639"/>
  <path transform="matrix(-.59783 -.23688 -.22606 .61831 477.32 417.37)" d="m617.54 234.93a22.046 7.248 0 1 1 0.07435 -0.14317" fill="#2b0000" stroke="#a25b36" stroke-width=".4"/>
  <path transform="matrix(-.73142 -.26837 -.27718 .70218 611.9 323.45)" d="m573.8 233.52a22.046 7.248 0 0 1 43.335 -1.7544" fill="none" stroke="#000" stroke-width="1.5818"/>
  <path transform="matrix(-.71707 -.35744 -.35456 .71403 655.62 303.25)" d="m573.8 233.5a22.046 8.3936 0 0 1 43.335 -2.0317" fill="none" stroke="#000" stroke-width="1.1162"/>
  <path d="m142.27 245.63-24.458 48.91-0.48988 4.1063-7.2322 2.2493-1.6473-5.2053 3.3732-3.2066s23.898-47.727 24.888-47.912c2.1368-0.29773 3.0174-0.71315 5.5662 1.0579z" fill="#d4aa00" fill-rule="evenodd" stroke="#000" stroke-width=".93991"/>
  <path d="m141.4 244.66-24.458 48.91-0.48988 4.1063-7.2322 2.2493-1.6473-5.2053 3.3732-3.2066s23.898-47.727 24.888-47.912c2.1368-0.29773 3.0174-0.71315 5.5662 1.0579z" fill="#d4aa00" fill-rule="evenodd" stroke="#000" stroke-width=".93991"/>
  <path d="m141.4 244.66-24.458 48.91-0.48988 4.1063-7.2322 2.2493-1.6473-5.2053 3.3732-3.2066s23.898-47.727 24.888-47.912c2.1368-0.29773 3.0174-0.71315 5.5662 1.0579z" fill="url(#a)" fill-rule="evenodd" stroke="#000" stroke-width=".93991"/>
  <path d="m64.234 418.18s-16.902 22.171-13.734 22.917 1.8636 0.9318 1.1182 3.5408c-2.7478 1.3688-11.363 19.503-7.556 8.2534 0 0 3.9487-0.47909 6.3739-1.9781 2.6897-1.6625 5.5071-4.2448 6.2138-4.5981 6.3362-3.1681 9.5043 1.1181 9.5043 1.1181l12.802-25.526-2.3464-2.9789-12.376-0.74825z" fill="#280b0b" fill-rule="evenodd" stroke="#000"/>
  <path d="m58.852 415.31s-14.698 24.171-13.691 24.607c3.2648 1.4124 2.0134 1.0888 1.2081 4.1374-1.832 6.9349-5.235 10.235-5.235 10.235l-2.2148 1.7421s-0.80538 5.2262 2.4161 3.9197 2.8188-4.7907 2.8188-4.7907 7.6086-10.756 9.0605-11.541c6.8457-3.7019 12.886 0.43551 12.886 0.43551l5.0665-14.237 5.6048-11.241s-4.0269-2.6676-8.2552-3.2664-9.6646 0-9.6646 0z" fill="#ff7800" fill-rule="evenodd" stroke="#000" stroke-width="1.1236"/>
  <path transform="matrix(1.0768 -.095478 -.23878 1.1936 114.86 -88.89)" d="m41.162 444.35a1.4909 1.4909 0 1 1 0.00518 -0.03038" fill="#280b0b" stroke="#000" stroke-width=".959"/>
  <path d="m58.852 415.31s-14.698 24.171-13.691 24.607c3.2648 1.4124 2.0134 1.0888 1.2081 4.1374-1.832 6.9349-5.235 10.235-5.235 10.235l-2.2148 1.7421s-0.80538 5.2262 2.4161 3.9197 2.8188-4.7907 2.8188-4.7907 7.6086-10.756 9.0605-11.541c6.8457-3.7019 12.886 0.43551 12.886 0.43551l5.0665-14.237 5.6048-11.241s-4.0269-2.6676-8.2552-3.2664-9.6646 0-9.6646 0z" fill="url(#b)" fill-rule="evenodd" stroke="#000" stroke-width="1.1236"/>
  <path transform="matrix(-.59783 -.23688 -.22606 .61831 477.32 417.37)" d="m580.51 238.85a22.046 7.248 0 1 1 34.403 -1.5654" fill="none" stroke="#a25b36" stroke-width="1.322"/>
  <path transform="matrix(-.60478 -.21851 -.20708 .62493 478.68 401.05)" d="m574.99 230.4a22.046 10.008 0 0 1 41.33 -0.47736" fill="none" stroke="#311c17" stroke-width=".39967"/>
  <path transform="matrix(-.58299 -.21491 -.16803 .68923 458.1 381.67)" d="m575.7 229.58a22.046 10.008 0 0 1 40.616 0.34945" fill="none" stroke="#311c17" stroke-width=".39967"/>
  <path transform="matrix(-.56745 -.19394 -.16352 .63321 449.54 378.52)" d="m576.17 229.13a22.046 10.008 0 0 1 40.146 0.79884" fill="none" stroke="#311c17" stroke-width=".39967"/>
  <path transform="matrix(-.5472 -.19121 -.12468 .69592 429.71 359.98)" d="m576.2 229.1a22.046 10.008 0 0 1 40.117 0.82452" fill="none" stroke="#311c17" stroke-width=".39967"/>
 </g>
</svg>
